<svg xmlns="http://www.w3.org/2000/svg" viewBox="0 0 64 64" fill="none">
  <defs>
    <linearGradient id="eggFill" x1="18" y1="10" x2="50" y2="56" gradientUnits="userSpaceOnUse">
      <stop stop-color="#FFB24D" />
      <stop offset="1" stop-color="#F07C1F" />
    </linearGradient>
  </defs>
  <rect width="64" height="64" rx="18" fill="#F8FAFC" />
  <path
    d="M32 8C21.2 8 14 21.3 14 34.1C14 47.6 21.6 56 32 56C42.4 56 50 47.6 50 34.1C50 21.3 42.8 8 32 8Z"
    fill="url(#eggFill)"
    stroke="#153B63"
    stroke-width="2.5"
  />
  <path
    d="M25.5 14.8C22.4 17.1 19.8 21 18.6 25.4"
    stroke="#FFF8EE"
    stroke-width="3"
    stroke-linecap="round"
  />
  <circle cx="21.1" cy="28.2" r="1.6" fill="#FFF8EE" />
  <rect x="21" y="25" width="22" height="20" rx="4" fill="#153B63" />
  <path
    d="M26.5 35.4H28.7V29.5L27.3 30.6C26.8 31 26 30.9 25.6 30.3C25.2 29.8 25.3 29 25.8 28.6L28.9 26.1C29.3 25.8 29.8 25.6 30.3 25.6C31.5 25.6 32.4 26.5 32.4 27.7V35.4H34.6C35.3 35.4 35.9 36 35.9 36.7C35.9 37.4 35.3 38 34.6 38H26.5C25.8 38 25.2 37.4 25.2 36.7C25.2 36 25.8 35.4 26.5 35.4Z"
    fill="#FFF8EE"
  />
  <path
    d="M38.7 38C37.6 38 36.8 37.1 36.8 36.1C36.8 34.4 37.5 32.9 39 31.8L40.5 30.7C41.4 30 41.8 29.5 41.8 28.9C41.8 28 41 27.4 39.9 27.4C39 27.4 38.2 27.8 37.4 28.6C36.9 29.1 36 29.1 35.5 28.6C35 28.1 35 27.3 35.5 26.8C36.8 25.4 38.4 24.7 40.1 24.7C43.6 24.7 46.1 26.7 46.1 29.5C46.1 31.2 45.2 32.6 43.2 34L42.1 34.8C41.5 35.2 41.1 35.6 40.9 35.9H45.1C45.8 35.9 46.4 36.5 46.4 37.2C46.4 37.9 45.8 38.5 45.1 38.5H38.7V38Z"
    fill="#FFF8EE"
  />
  <path
    d="M23 49.5H27"
    stroke="#F9A43E"
    stroke-width="2.8"
    stroke-linecap="round"
  />
  <path
    d="M25 47.5V51.5"
    stroke="#F9A43E"
    stroke-width="2.8"
    stroke-linecap="round"
  />
  <circle cx="31.5" cy="49.5" r="1.8" fill="#FFF8EE" />
  <circle cx="37" cy="49.5" r="1.8" fill="#FFF8EE" />
  <circle cx="42.5" cy="49.5" r="1.8" fill="#FFF8EE" />
  <path
    d="M49 47.3C53 40.5 54 31.2 51.6 22.8"
    stroke="#153B63"
    stroke-width="2.8"
    stroke-linecap="round"
  />
  <path
    d="M50.2 18.3L55 21.1L56.1 15.7"
    stroke="#153B63"
    stroke-width="2.8"
    stroke-linecap="round"
    stroke-linejoin="round"
  />
</svg>
